#!OML:ASF E:\acrobat2\Project_11_07_03\Capture day 1\Session 1\Acrobat.ASF
:FULLY-SPECIFIED
:DEGREES
814
root 8.69233 18.3446 -15.9519 186.09 -3.03775 -178.888
lowerback -6.80278 0.863171 0.97903
upperback -4.87901 0.719288 -0.602622
thorax -1.19417 0.165368 -1.12479
lowerneck 3.16469 -2.58129 -2.08255
upperneck -5.63898 -3.44381 3.37249
head -2.22648 -1.79561 1.53024
rclavicle -1.71452e-015 1.78906e-015
rhumerus -45.5738 11.1656 -92.3288
rradius 29.2001
rwrist 0.87068
rhand -5.06042 -401.031
rfingers 7.12502
rthumb 20.7354 290.056
lclavicle -1.71452e-015 1.78906e-015
lhumerus -37.101 -20.5993 94.5595
lradius 22.5803
lwrist 8.82673
lhand -1.64971 -370.907
lfingers 7.12502
lthumb 24.0093 17.6115
rfemur 2.42791 5.83624 23.5402
rtibia 2.34028
rfoot 342.663 -12.6651
rtoes 11.3379
lfemur 0.295042 -2.37471 -19.3835
ltibia 3.39305
lfoot -1.72107 -10.0002
ltoes 36.4593
815
root 8.69576 18.3441 -15.9531 186.017 -2.94199 -178.89
lowerback -6.826 0.881416 0.961442
upperback -4.78088 0.755165 -0.578957
thorax -1.0794 0.189918 -1.08802
lowerneck 3.14329 -2.81235 -2.35827
upperneck -5.68629 -3.76002 3.52813
head -2.22204 -1.95234 1.6369
rclavicle 3.3048e-015 6.36111e-015
rhumerus -45.4058 11.0682 -92.1667
rradius 29.1994
rwrist 0.913716
rhand -5.09488 -401.123
rfingers 7.12502
rthumb 20.7022 289.961
lclavicle 3.3048e-015 6.36111e-015
lhumerus -36.9981 -20.7389 94.6758
lradius 22.5834
lwrist 8.93988
lhand -1.76058 -370.829
lfingers 7.12502
lthumb 23.903 17.7032
rfemur 2.49829 5.88636 23.5525
rtibia 2.34195
rfoot 342.645 -12.6106
rtoes 11.3902
lfemur 0.405509 -2.42594 -19.3936
ltibia 3.35956
lfoot -1.87311 -9.93326
ltoes 36.3662
816
root 8.69843 18.3447 -15.9534 185.962 -2.85123 -178.828
lowerback -6.86969 0.855235 0.970918
upperback -4.67702 0.730173 -0.514848
thorax -0.949176 0.183989 -1.02815
lowerneck 3.01951 -3.001 -2.5625
upperneck -5.71404 -4.01795 3.63636
head -2.19509 -2.08001 1.71114
rclavicle 1.26725e-015 -8.74653e-015
rhumerus -45.2268 11.2243 -92.1231
rradius 29.2085
rwrist 0.705137
rhand -5.13022 -401.138
rfingers 7.12502
rthumb 20.6683 289.942
lclavicle 1.26725e-015 -8.74653e-015
lhumerus -36.8481 -20.7184 94.7078
lradius 22.598
lwrist 9.0535
lhand -1.79817 -370.689
lfingers 7.12502
lthumb 23.867 17.8478
rfemur 2.47829 5.67306 23.5966
rtibia 2.48512
rfoot 342.678 -12.3446
rtoes 10.8463
lfemur 0.466384 -2.42197 -19.3229
ltibia 3.3808
lfoot -1.96816 -9.89995
ltoes 36.4592
817
root 8.70323 18.3454 -15.9494 185.963 -2.79993 -178.752
lowerback -6.91132 0.812063 0.986725
upperback -4.61854 0.676816 -0.458198
thorax -0.867513 0.160802 -0.981445
lowerneck 3.08444 -3.17442 -2.78232
upperneck -5.81868 -4.2556 3.78206
head -2.22683 -2.19938 1.8066
rclavicle -6.21202e-015 0
rhumerus -45.0124 11.3704 -92.1009
rradius 29.1524
rwrist 0.471302
rhand -5.20576 -401.032
rfingers 7.12502
rthumb 20.5957 290.04
lclavicle -6.21202e-015 0
lhumerus -36.7124 -20.6478 94.6849
lradius 22.5828
lwrist 9.1677
lhand -1.57562 -370.434
lfingers 7.12502
lthumb 24.0804 18.0747
rfemur 2.43694 5.63723 23.6993
rtibia 2.53105
rfoot 342.74 -12.2804
rtoes 10.3907
lfemur 0.394283 -2.46952 -19.2131
ltibia 3.50043
lfoot -2.1584 -9.87925
ltoes 35.8852
818
root 8.70844 18.3449 -15.9421 185.994 -2.74217 -178.728
lowerback -6.91796 0.791203 0.983333
upperback -4.61986 0.648551 -0.437756
thorax -0.866151 0.146747 -0.960183
lowerneck 3.39194 -3.46397 -2.91874
upperneck -6.05178 -4.65451 3.77567
head -2.34287 -2.39733 1.85252
rclavicle -6.48535e-015 -2.78299e-015
rhumerus -44.8552 11.4124 -92.0533
rradius 29.0683
rwrist 0.315021
rhand -5.24834 -401.003
rfingers 7.12502
rthumb 20.5548 290.065
lclavicle -6.48535e-015 -2.78299e-015
lhumerus -36.7138 -20.6883 94.7299
lradius 22.5726
lwrist 9.36488
lhand -1.37162 -370.305
lfingers 7.12502
lthumb 24.276 18.1781
rfemur 2.3982 5.85951 23.7687
rtibia 2.45831
rfoot 342.748 -12.4284
rtoes 10.5737
lfemur 0.280731 -2.4924 -19.1574
ltibia 3.60392
lfoot -2.33147 -9.85456
ltoes 35.2628
819
root 8.71129 18.3442 -15.936 186.018 -2.67538 -178.716
lowerback -6.93672 0.736961 0.979815
upperback -4.58771 0.578932 -0.416789
thorax -0.824464 0.113809 -0.940683
lowerneck 3.60073 -3.86376 -2.97054
upperneck -6.28113 -5.20559 3.61158
head -2.43912 -2.66724 1.83428
rclavicle 4.47266e-015 2.5842e-015
rhumerus -44.6459 11.5356 -92.0569
rradius 28.9165
rwrist 0.178444
rhand -5.45972 -400.833
rfingers 7.12502
rthumb 20.3517 290.213
lclavicle 4.47266e-015 2.5842e-015
lhumerus -36.6618 -20.6825 94.7285
lradius 22.4742
lwrist 9.48803
lhand -1.5066 -370.617
lfingers 7.12502
lthumb 24.1466 17.883
rfemur 2.36505 5.99903 23.8001
rtibia 2.39251
rfoot 342.772 -12.5089
rtoes 10.9195
lfemur 0.21635 -2.45332 -19.1308
ltibia 3.64773
lfoot -2.33747 -9.8346
ltoes 35.3511
820
root 8.71672 18.3428 -15.932 186.049 -2.62203 -178.716
lowerback -6.99863 0.614229 0.876901
upperback -4.48137 0.430096 -0.3585
thorax -0.685174 0.0476333 -0.831756
lowerneck 3.38783 -4.17366 -3.32658
upperneck -6.24335 -5.62411 3.90992
head -2.35575 -2.87735 1.99515
rclavicle -3.62782e-015 -1.2921e-014
rhumerus -44.3074 11.8386 -92.1099
rradius 28.7525
rwrist 0.187438
rhand -5.60488 -400.506
rfingers 7.12502
rthumb 20.2121 290.525
lclavicle -3.62782e-015 -1.2921e-014
lhumerus -36.3996 -20.4068 94.5404
lradius 22.3369
lwrist 9.3312
lhand -1.69567 -371.029
lfingers 7.12502
lthumb 23.9653 17.4952
rfemur 2.30979 6.15895 23.8366
rtibia 2.39727
rfoot 342.777 -12.6501
rtoes 11.0256
lfemur 0.137297 -2.41252 -19.0965
ltibia 3.7231
lfoot -2.37944 -9.8239
ltoes 35.0015
